PathFileType	4	(X/Y/Z)	S01_0013_Gait_markers.trc
DataRate	CameraRate	NumFrames	NumMarkers	Units	OrigDataRate	OrigDataStartFrame	OrigNumFrames
250.000000	250.000000	4	54	mm	250.000000	87	349
Frame#	Time	HEAD_ANT			R_HEAD			L_HEAD			C7			R_BACK			L_BACK			STERNUM			R_ACROMION			R_HUM_PROX			R_HUM_ANT			R_HUM_POST			R_ELBOW_LAT			R_ELBOW_MED			R_FOREARM			R_WIRST_LAT			R_WRITS_MED			R_HAND			L_ACROMION			L_HUM_PROX			L_HUM_ANT			L_HUM_POST			L_ELBOW_LAT			L_ELBOW_MED			L_FOREARM			L_WRIST_LAT			L_WIRST_MED			L_HAND			R_ILIAC			SACRUM			L_ILIAC			R_GTROCH			R_THIGH__1			R_THIGH_2			R_THIGH_3			R_THIGH_4			R_SHANK_1			R_SHANK_2			R_SHANK_3			R_SHANK_4			R_HEEL			R_FOOT_LAT			R_FOOT_MED			L_GTROCH			L_THIGH_1			L_THIGH_2			L_THIGH_3			L_THIGH_4			L_SHANK_1			L_SHANK_2			L_SHANK_3			L_SHANK_4			L_HEEL			L_FOOT_LAT			L_FOOT_MED			
		X1	Y1	Z1	X2	Y2	Z2	X3	Y3	Z3	X4	Y4	Z4	X5	Y5	Z5	X6	Y6	Z6	X7	Y7	Z7	X8	Y8	Z8	X9	Y9	Z9	X10	Y10	Z10	X11	Y11	Z11	X12	Y12	Z12	X13	Y13	Z13	X14	Y14	Z14	X15	Y15	Z15	X16	Y16	Z16	X17	Y17	Z17	X18	Y18	Z18	X19	Y19	Z19	X20	Y20	Z20	X21	Y21	Z21	X22	Y22	Z22	X23	Y23	Z23	X24	Y24	Z24	X25	Y25	Z25	X26	Y26	Z26	X27	Y27	Z27	X28	Y28	Z28	X29	Y29	Z29	X30	Y30	Z30	X31	Y31	Z31	X32	Y32	Z32	X33	Y33	Z33	X34	Y34	Z34	X35	Y35	Z35	X36	Y36	Z36	X37	Y37	Z37	X38	Y38	Z38	X39	Y39	Z39	X40	Y40	Z40	X41	Y41	Z41	X42	Y42	Z42	X43	Y43	Z43	X44	Y44	Z44	X45	Y45	Z45	X46	Y46	Z46	X47	Y47	Z47	X48	Y48	Z48	X49	Y49	Z49	X50	Y50	Z50	X51	Y51	Z51	X52	Y52	Z52	X53	Y53	Z53	X54	Y54	Z54	

88	0.348	575.3392333984375	1745.217895507812	-262.7840576171871	519.243408203125	1686.8232421875	-188.5394287109371	514.7399291992188	1703.882080078125	-335.7618408203121	383.2982177734375	1524.380859375	-273.0541381835934	314.8090515136719	1325.089111328125	-211.9340667724607	309.9490356445312	1333.183837890625	-351.5639038085935	562.0524291992188	1364.224243164062	-286.8836364746091	466.496337890625	1469.958862304688	-106.1202468872067	423.0426330566406	1306.773803710938	-22.34491920471162	481.2982788085938	1219.331176757812	-21.95814704894993	359.5581359863281	1224.755493164062	-15.51304531097385	404.8414916992188	1117.048217773438	-13.4535636901853	379.3176574707031	1117.9033203125	-93.74523925781226	515.7158813476562	938.7937622070312	-27.05108070373514	558.5368041992188	879.734619140625	-71.20542144775371	492.1007385253906	848.7219848632812	-37.27622222900371	567.5595092773438	788.4962768554688	-25.070659637451	457.4046020507812	1488.4404296875	-445.3810729980465	432.3609619140625	1327.580688476563	-549.6045532226559	492.1826782226562	1245.899291992188	-556.3883666992185	371.4046020507812	1252.817016601563	-577.9316406249998	428.196044921875	1148.136474609375	-593.668762207031	375.7308959960938	1140.927978515625	-537.986633300781	523.6917114257812	965.5110473632814	-585.625061035156	544.040283203125	897.1369018554689	-536.2402343749998	506.5840759277344	886.9086303710939	-605.4855346679685	574.4244995117188	820.0624389648439	-587.6173095703123	464.6222534179688	1078.79931640625	-122.8967285156248	326.7747802734375	1049.3515625	-282.7986145019529	439.3579406738281	1070.87255859375	-462.6561889648435	418.5690307617188	929.4781494140625	-103.730155944824	469.4259033203125	647.8834838867188	-142.203659057617	525.052001953125	667.0809326171875	-139.5202636718749	533.8247680664062	568.21875	-181.0283050537108	469.734375	569.273193359375	-167.518096923828	445.3141479492188	343.4171142578126	-177.173110961914	498.6582946777344	320.0750427246094	-194.3827209472655	488.3113403320312	237.3414611816407	-216.9386444091796	425.4600219726562	246.7204284667969	-204.8419952392578	368.1037902832031	46.42345046997077	-298.2022705078125	527.9705810546875	18.91451644897466	-206.5778503417969	588.2403564453125	31.07255363464362	-306.9864196777344	406.4011535644531	953.6288452148439	-468.446105957031	549.2252807617188	677.2792358398439	-477.0374755859373	492.1372375488281	690.9323730468751	-488.7183227539061	493.5884399414062	585.2644653320314	-471.4382019042968	556.8941040039062	595.6836547851564	-466.6768798828124	399.7556762695312	365.0660705566407	-472.7010192871093	345.53662109375	390.4800109863282	-475.5048217773436	282.383544921875	331.8064270019532	-461.3693237304687	330.9137573242188	290.4684448242189	-453.3008117675781	125.6486663818359	237.5791473388673	-390.2729797363281	208.9325866699219	85.23294830322276	-459.9965209960938	243.9756469726562	68.08874511718759	-367.4938659667969	
89	0.352	580.479248046875	1745.8310546875	-262.9972229003902	524.5890502929688	1687.515258789062	-188.6386413574215	519.930419921875	1704.394165039062	-335.8841857910152	388.2008361816406	1525.0537109375	-272.9631042480465	319.8423767089844	1325.910766601562	-211.5141296386716	314.7342529296875	1333.791259765625	-351.2162170410153	567.0971069335938	1365.019165039062	-287.2671203613278	471.8418273925781	1470.720581054688	-106.011909484863	428.8431396484375	1307.514526367188	-22.02930450439424	487.2613830566406	1220.08642578125	-21.97575569152805	365.5631103515625	1225.511962890625	-15.06431388854953	411.5130920410156	1117.55322265625	-13.18941211700415	385.1936645507812	1118.609008789062	-93.45027160644507	522.4877319335938	939.8182983398438	-27.57667541503885	565.3935546875	881.1622924804688	-71.94793701171855	499.2385864257812	849.7974243164062	-37.55424880981426	574.9240112304688	789.7889404296875	-25.91980552673322	462.0631103515625	1489.053588867188	-445.3988647460934	436.6311950683594	1328.091552734375	-549.5927734374997	496.5157165527344	1246.518676757813	-556.670715332031	375.5019226074219	1253.524658203125	-577.5755615234373	432.1676330566406	1148.82763671875	-593.6098632812498	379.8142395019531	1141.578735351563	-537.6569213867185	527.4854736328125	966.1279907226564	-585.9204101562498	548.0271606445312	897.4431762695314	-536.6135253906248	510.3667297363281	887.4940185546876	-605.7501220703123	577.851806640625	820.4706420898439	-587.985168457031	469.9900817871094	1079.375244140625	-122.2426757812498	331.6728210449219	1050.22802734375	-282.2509460449216	444.708740234375	1071.724975585938	-462.296203613281	423.36572265625	930.0706176757812	-103.5301971435545	471.5227966308594	648.2318115234375	-142.0719604492186	527.2618408203125	666.930419921875	-139.4872741699217	535.2493896484375	567.9935302734375	-180.7917022705077	471.2198791503906	569.6784057617188	-167.3471679687499	445.7617492675781	343.6514892578126	-177.0649414062499	499.1024475097656	320.1874084472657	-194.1674804687499	488.6311645507812	237.5659790039063	-216.7778778076171	425.7137451171875	246.9298553466797	-204.8837432861328	368.2718811035156	46.75889205932624	-298.4128112792969	527.9327392578125	18.87459945678716	-206.5509796142578	588.4067993164062	31.1040000915528	-306.8664855957031	411.4964904785156	954.6561889648439	-468.1187438964841	557.1467895507812	679.0742797851564	-476.5679931640623	500.0335998535156	692.2276000976564	-488.3785705566405	502.0802001953125	586.4527587890626	-471.1969299316405	565.458984375	597.6658325195314	-466.0545959472655	410.6114807128906	365.1861877441407	-472.5541076660156	355.6090087890625	390.714080810547	-475.4007568359374	293.2813110351562	330.785614013672	-461.7059936523437	342.3017578125	289.7406311035157	-453.2979125976562	137.290283203125	233.8518524169923	-390.4893493652343	224.3203277587891	83.88664245605479	-460.6427307128906	259.8076477050781	67.05123138427743	-368.3590698242188	
90	0.356	585.561279296875	1746.378173828125	-263.1962585449215	529.8159790039062	1688.257690429688	-188.6166839599606	524.8035278320312	1704.918701171875	-335.981048583984	393.3548583984375	1525.828369140625	-272.8395385742184	325	1326.760864257812	-210.8917541503903	319.91796875	1334.435791015625	-351.0619201660153	572.1109619140625	1365.705444335938	-287.2213745117185	477.139404296875	1471.461791992188	-106.0544815063473	434.6183776855469	1308.246215820312	-21.86188125610322	493.2688598632812	1220.923828125	-21.93476295471164	371.4580078125	1226.110473632812	-14.63847923278781	417.8782043457031	1118.24609375	-12.95930004119848	391.5274658203125	1119.077880859375	-92.55844879150366	529.2652587890625	940.8589477539062	-28.02908325195292	572.1480102539062	882.3007202148438	-72.73056030273418	506.3218078613281	850.8760986328125	-37.96731567382793	582.3389892578125	791.1393432617188	-26.66240119934065	466.9380187988281	1489.682373046875	-445.2929992675778	441.006103515625	1328.672607421875	-549.5211791992184	500.8743591308594	1246.494873046875	-556.0165405273435	379.6009826660156	1254.073364257813	-577.3355712890623	436.2259521484375	1149.349243164063	-593.3617553710935	382.31787109375	1142.718505859375	-537.7054443359373	531.2322998046875	966.5422973632814	-586.3770751953123	551.9885864257812	897.9600219726564	-537.0433349609373	514.052490234375	888.1016235351564	-606.0150756835935	581.3384399414062	820.7350463867189	-588.4691772460935	474.95654296875	1079.869995117188	-121.5119400024412	336.7532653808594	1050.832397460938	-281.9609069824216	449.7287292480469	1072.667114257812	-461.8153991699216	427.9840393066406	930.6178588867188	-103.2194290161131	473.7101745605469	648.7576293945312	-141.9049224853514	529.7285766601562	667.0635375976562	-138.8937683105467	536.8887939453125	568.0255126953125	-180.2720947265624	472.56884765625	569.9026489257812	-167.2817382812499	446.2579040527344	343.9240722656251	-176.893829345703	499.6238403320312	320.3844909667969	-193.9991760253905	488.9748229980469	237.7426300048829	-216.657241821289	426.0696105957031	247.2345886230469	-204.9395904541015	368.4794006347656	47.07447433471686	-298.6824951171875	527.9363403320312	18.90267562866216	-206.5660552978516	588.6043701171875	31.19533920288093	-306.6763916015625	416.952880859375	955.5705566406251	-467.8859252929685	564.7665405273438	680.7171020507814	-476.0888061523436	507.987060546875	693.1335449218751	-488.2377929687498	510.776123046875	587.4035034179689	-471.5959167480468	574.0045776367188	599.5575561523439	-465.0680847167968	420.8223571777344	365.3500061035157	-472.1391601562499	365.9438171386719	390.0711364746095	-475.0129394531249	304.281982421875	329.2807617187501	-460.8050231933593	353.9415893554688	289.3082885742189	-453.1376953124999	148.7646636962891	229.983856201172	-390.6525573730468	239.8349761962891	82.77876281738291	-460.9341430664062	275.6229553222656	66.04234313964852	-368.797119140625	
91	0.36	590.7168579101562	1746.824462890625	-263.492523193359	534.9878540039062	1688.946166992188	-188.7825317382809	529.8223876953125	1705.350219726562	-336.2558593749996	398.2610473632812	1526.328247070312	-272.7019348144528	330.2499389648438	1327.325805664062	-210.4043121337888	325.093994140625	1335.1123046875	-350.691467285156	577.1535034179688	1366.384521484375	-286.9760437011716	482.5229797363281	1472.231567382812	-106.0310058593747	440.4706115722656	1308.949340820312	-21.58190917968721	499.2427673339844	1221.706665039062	-21.9196529388425	377.4535827636719	1226.539306640625	-14.19196891784641	423.9862060546875	1118.924438476562	-12.6925830841062	397.4739379882812	1119.843017578125	-92.15090179443335	536.1271362304688	941.8898315429688	-28.2582721710203	579.0313110351562	883.4742431640625	-73.41722869873027	513.4852294921875	851.7942504882812	-38.15917587280254	589.699951171875	792.3492431640625	-27.33659362792951	471.6497192382812	1490.255737304688	-445.2071533203122	445.2977905273438	1329.24365234375	-549.4080200195309	504.9305725097656	1247.424682617188	-557.1114501953123	383.6353454589844	1254.601684570313	-576.685607910156	439.9676208496094	1149.90673828125	-593.314270019531	386.5723876953125	1143.096069335938	-537.2914428710935	534.939697265625	966.9494018554689	-586.5800170898435	555.4901733398438	898.2730102539064	-537.3879394531248	517.5247192382812	888.6152343750001	-606.4808349609373	584.7626953125	821.0861816406251	-589.1624755859373	480.0806884765625	1080.563232421875	-121.2531433105466	341.7395629882812	1051.4345703125	-281.4998474121091	454.6543884277344	1073.769165039062	-461.4062499999998	432.6123046875	931.2311401367188	-102.9419250488279	475.8250122070312	649.1785888671875	-141.5344238281249	531.9885864257812	667.0313720703125	-138.6072540283202	538.5775146484375	567.9815063476562	-179.7082977294921	474.1127319335938	570.4386596679688	-167.0381927490233	446.7276306152344	344.1687011718751	-176.8367919921874	500.1275024414062	320.6110534667969	-193.8190917968749	489.3467407226562	237.9480133056641	-216.4030609130859	426.4036254882812	247.5682525634766	-204.9529113769531	368.6994018554688	47.56571960449225	-299.0052795410156	527.8980102539062	18.91560554504399	-206.61181640625	588.7651977539062	31.2667140960694	-306.5353698730469	422.3390808105469	956.4559936523439	-467.8150329589841	572.3552856445312	682.4410400390626	-475.6007995605467	515.6185302734375	694.2512817382814	-488.1960144042967	519.2678833007812	588.7781982421876	-471.1691894531249	582.1563720703125	601.2440185546876	-464.9512939453124	431.7198486328125	365.7437133789064	-471.9846801757812	376.4268798828125	389.7573852539064	-474.7524414062499	315.2987670898438	327.7488098144532	-461.1596374511718	365.4889526367188	288.462127685547	-452.9337463378906	160.6872406005859	225.8560180664063	-390.6150512695312	255.7665557861328	81.28362274169932	-461.3281555175781	291.7676696777344	64.86780548095712	-369.231689453125	
